<?xml version="1.0" encoding="utf-8"?>
<!-- Generator: Adobe Illustrator 16.0.0, SVG Export Plug-In . SVG Version: 6.00 Build 0)  -->
<!DOCTYPE svg PUBLIC "-//W3C//DTD SVG 1.1//EN" "http://www.w3.org/Graphics/SVG/1.1/DTD/svg11.dtd">
<svg version="1.1" id="Layer_1" xmlns="http://www.w3.org/2000/svg" xmlns:xlink="http://www.w3.org/1999/xlink" x="0px" y="0px"
	 width="212px" height="212px" viewBox="0 0 212 212" enable-background="new 0 0 212 212" xml:space="preserve">
<g>
	<g>
		<g enable-background="new    ">
			<g enable-background="new    ">
				<defs>
					<path id="SVGID_1_" enable-background="new    " d="M115.414,10.636c5.105,2.777,10.21,5.555,15.317,8.332
						c-11.023-5.996-24.102-8.527-38.135-6.555L77.279,4.081C91.311,2.109,104.39,4.64,115.414,10.636z"/>
				</defs>
				<clipPath id="SVGID_2_">
					<use xlink:href="#SVGID_1_"  overflow="visible"/>
				</clipPath>
				<g clip-path="url(#SVGID_2_)" enable-background="new    ">
					<path fill="#828282" d="M92.596,12.414L77.279,4.081c14.032-1.972,27.111,0.559,38.135,6.555l15.317,8.332
						C119.707,12.972,106.628,10.441,92.596,12.414"/>
				</g>
			</g>
			<g enable-background="new    ">
				<defs>
					<path id="SVGID_3_" enable-background="new    " d="M54.183,159.957c-5.105-2.777-10.211-5.555-15.317-8.332
						C18.917,140.772,5.703,118.567,5.753,91.158C5.832,48.607,37.855,9.622,77.279,4.081l15.317,8.333
						C53.171,17.954,21.149,56.939,21.07,99.491C21.019,126.899,34.234,149.105,54.183,159.957z"/>
				</defs>
				<clipPath id="SVGID_4_">
					<use xlink:href="#SVGID_3_"  overflow="visible"/>
				</clipPath>
				<g clip-path="url(#SVGID_4_)" enable-background="new    ">
					<path fill="#828282" d="M54.183,159.957l-15.316-8.332C18.917,140.772,5.703,118.567,5.753,91.158
						C5.832,48.607,37.855,9.622,77.279,4.081l15.317,8.333C53.171,17.954,21.149,56.939,21.07,99.491
						C21.019,126.899,34.234,149.105,54.183,159.957"/>
				</g>
			</g>
			<g>
				<path fill="#BABABA" d="M92.596,12.414c39.425-5.541,71.324,24.46,71.246,67.012c-0.079,42.552-32.108,81.544-71.532,87.085
					c-39.424,5.541-71.318-24.468-71.239-67.02C21.149,56.939,53.171,17.954,92.596,12.414z"/>
			</g>
		</g>
	</g>
</g>
<g>
	<g>
		<defs>
			<circle id="SVGID_5_" cx="163.794" cy="124.293" r="80.205"/>
		</defs>
		<clipPath id="SVGID_6_">
			<use xlink:href="#SVGID_5_"  overflow="visible"/>
		</clipPath>
	</g>
</g>
<g>
	<g>
		<g enable-background="new    ">
			<g enable-background="new    ">
				<defs>
					<path id="SVGID_7_" enable-background="new    " d="M160.413,54.637c5.105,2.777,10.211,5.555,15.317,8.333
						c-11.023-5.997-24.103-8.527-38.135-6.555l-15.316-8.333C136.311,46.11,149.39,48.641,160.413,54.637z"/>
				</defs>
				<clipPath id="SVGID_8_">
					<use xlink:href="#SVGID_7_"  overflow="visible"/>
				</clipPath>
				<g clip-path="url(#SVGID_8_)" enable-background="new    ">
					<path fill="#B17600" d="M137.596,56.415l-15.316-8.333c14.031-1.972,27.11,0.559,38.134,6.555l15.317,8.333
						C164.707,56.973,151.628,54.442,137.596,56.415"/>
				</g>
			</g>
			<g enable-background="new    ">
				<defs>
					<path id="SVGID_9_" enable-background="new    " d="M99.183,203.958c-5.105-2.777-10.211-5.555-15.317-8.332
						c-19.949-10.853-33.164-33.058-33.113-60.467c0.079-42.551,32.102-81.536,71.526-87.077l15.316,8.333
						c-39.424,5.541-71.446,44.526-71.525,87.078C66.019,170.9,79.234,193.106,99.183,203.958z"/>
				</defs>
				<clipPath id="SVGID_10_">
					<use xlink:href="#SVGID_9_"  overflow="visible"/>
				</clipPath>
				<g clip-path="url(#SVGID_10_)" enable-background="new    ">
					<path fill="#B17600" d="M99.183,203.958l-15.316-8.332c-19.949-10.853-33.164-33.058-33.113-60.467
						c0.079-42.551,32.102-81.536,71.526-87.077l15.316,8.333c-39.424,5.541-71.446,44.526-71.525,87.078
						C66.019,170.9,79.234,193.106,99.183,203.958"/>
				</g>
			</g>
			<g>
				<path fill="#FDA900" d="M137.596,56.415c39.425-5.541,71.324,24.46,71.246,67.012c-0.079,42.552-32.108,81.544-71.532,87.085
					c-39.424,5.541-71.318-24.468-71.239-67.02S98.171,61.955,137.596,56.415z"/>
			</g>
		</g>
	</g>
</g>
</svg>
